<mxfile host="app.diagrams.net" modified="2024-02-25T01:20:08.053Z" agent="Mozilla/5.0 (Macintosh; Intel Mac OS X 10_15_7) AppleWebKit/537.36 (KHTML, like Gecko) Chrome/120.0.0.0 Safari/537.36" etag="Hag7puWYJTFKsVvTvVZT" version="22.1.18" type="github">
  <diagram id="9fnjXT7nlAm7Ix4f8WDv" name="Page-1">
    <mxGraphModel dx="943" dy="762" grid="0" gridSize="10" guides="1" tooltips="1" connect="1" arrows="1" fold="1" page="1" pageScale="1" pageWidth="900" pageHeight="750" background="#EFF1F3" math="0" shadow="0">
      <root>
        <mxCell id="0" />
        <mxCell id="1" parent="0" />
        <mxCell id="3zs3Am_Uh3rQ7c6fNL1m-41" value="" style="rounded=1;whiteSpace=wrap;html=1;fillColor=none;strokeWidth=3;strokeColor=#4A909B;dashed=1;" parent="1" vertex="1">
          <mxGeometry x="443.5" y="408" width="415" height="133.5" as="geometry" />
        </mxCell>
        <mxCell id="5zGb_LtoR-WvMu9iLxvD-1" value="&lt;font color=&quot;#4a909b&quot; style=&quot;font-size: 17px;&quot;&gt;公众号：小白debug&lt;/font&gt;" style="text;html=1;strokeColor=none;fillColor=none;align=center;verticalAlign=middle;whiteSpace=wrap;rounded=0;fontSize=16;" parent="1" vertex="1">
          <mxGeometry x="185.5" y="399" width="282" height="30" as="geometry" />
        </mxCell>
        <mxCell id="YSpOYTgw5d68OkFlZB_1-13" value="" style="shape=flexArrow;endArrow=classic;html=1;rounded=0;strokeColor=none;fillColor=#4A909B;" parent="1" edge="1">
          <mxGeometry width="50" height="50" relative="1" as="geometry">
            <mxPoint x="389.12" y="160.94000000000005" as="sourcePoint" />
            <mxPoint x="389.12" y="110.00000000000006" as="targetPoint" />
          </mxGeometry>
        </mxCell>
        <mxCell id="YSpOYTgw5d68OkFlZB_1-15" value="" style="shape=image;verticalLabelPosition=bottom;labelBackgroundColor=default;verticalAlign=top;aspect=fixed;imageAspect=0;image=data:image/svg+xml,PHN2ZyB4bWxuczp4bGluaz0iaHR0cDovL3d3dy53My5vcmcvMTk5OS94bGluayIgeG1sbnM9Imh0dHA6Ly93d3cudzMub3JnLzIwMDAvc3ZnIiBoZWlnaHQ9IjIwMCIgd2lkdGg9IjIwMCIgdmVyc2lvbj0iMS4xIiB2aWV3Qm94PSIwIDAgMTAyNCAxMDI0IiBjbGFzcz0iaWNvbiI+PHBhdGggZmlsbD0iIzRhOTA5YyIgZD0iTTczNiAyNTZIMjg4Yy0xNy43IDAtMzIgMTQuMy0zMiAzMnYwLjNjMCAxNy43IDE0LjMgMzIgMzIgMzJoMTkxLjl2NDE1LjZjMCAxNy43IDE0LjMgMzIgMzIgMzJzMzItMTQuMyAzMi0zMlYzMjAuMkg3MzZjMTcuNyAwIDMyLTE0LjMgMzItMzJ2LTAuMmMwLTE3LjctMTQuMy0zMi0zMi0zMnoiLz48cGF0aCBmaWxsPSIjNGE5MDljIiBkPSJNODk1LjkgOTU5SDEyOC4xQzkyLjcgOTU5IDY0IDkzMC4zIDY0IDg5NC45VjEyOC4xQzY0IDkyLjcgOTIuNyA2NCAxMjguMSA2NGg3NjcuOGMzNS4zIDAgNjQuMSAyOC43IDY0LjEgNjQuMXY3NjYuOGMwIDM1LjQtMjguNyA2NC4xLTY0LjEgNjQuMXogbTAtODMxSDEyOHMtMC4xIDAtMC4xIDAuMVY4OTVzMCAwLjEgMC4xIDAuMWg3Njh2LTAuMWwtMC4xLTc2N2MwLjEgMCAwLjEgMCAwIDB6Ii8+PC9zdmc+;" parent="1" vertex="1">
          <mxGeometry x="361.25" y="48" width="56.5" height="56.5" as="geometry" />
        </mxCell>
        <mxCell id="YSpOYTgw5d68OkFlZB_1-16" value="&lt;font style=&quot;font-size: 23px;&quot; color=&quot;#4a909b&quot;&gt;读操作&lt;/font&gt;" style="text;html=1;strokeColor=none;fillColor=none;align=center;verticalAlign=middle;whiteSpace=wrap;rounded=0;" parent="1" vertex="1">
          <mxGeometry x="279" y="117" width="102.75" height="30" as="geometry" />
        </mxCell>
        <mxCell id="3zs3Am_Uh3rQ7c6fNL1m-13" style="edgeStyle=orthogonalEdgeStyle;rounded=0;orthogonalLoop=1;jettySize=auto;html=1;exitX=0.5;exitY=1;exitDx=0;exitDy=0;strokeWidth=3;endArrow=block;endFill=1;strokeColor=#F19C99;" parent="1" source="YSpOYTgw5d68OkFlZB_1-3" target="3zs3Am_Uh3rQ7c6fNL1m-1" edge="1">
          <mxGeometry relative="1" as="geometry" />
        </mxCell>
        <mxCell id="YSpOYTgw5d68OkFlZB_1-3" value="&lt;font style=&quot;font-size: 28px;&quot;&gt;map&lt;/font&gt;" style="rounded=1;whiteSpace=wrap;html=1;fillColor=#F19C99;fontColor=#F8F8F8;strokeColor=none;" parent="1" vertex="1">
          <mxGeometry x="180.5" y="326" width="83" height="44" as="geometry" />
        </mxCell>
        <mxCell id="d0l3E_F23vbkGV6QoOfy-14" value="" style="shape=image;verticalLabelPosition=bottom;labelBackgroundColor=default;verticalAlign=top;aspect=fixed;imageAspect=0;image=data:image/svg+xml,PHN2ZyB4bWxuczp4bGluaz0iaHR0cDovL3d3dy53My5vcmcvMTk5OS94bGluayIgeG1sbnM9Imh0dHA6Ly93d3cudzMub3JnLzIwMDAvc3ZnIiBoZWlnaHQ9IjIwMCIgd2lkdGg9IjIwMCIgdmVyc2lvbj0iMS4xIiB2aWV3Qm94PSIwIDAgMTAyNCAxMDI0IiBjbGFzcz0iaWNvbiI+PHBhdGggZmlsbD0iIzRhOTA5YyIgZD0iTTc0NCA0MThoLTUuNVYyOTNjMC0xMDcuNTMtODcuNDgtMTk1LTE5NS0xOTVINDgxYy0xMDcuNTMgMC0xOTUgODcuNDgtMTk1IDE5NXY0NWE0MCA0MCAwIDAgMCA4MCAwdi00NWExMTUuMTQgMTE1LjE0IDAgMCAxIDExNS0xMTVoNjIuNWExMTUuMTQgMTE1LjE0IDAgMCAxIDExNSAxMTV2MTI1SDI4MGE4NC4yNSA4NC4yNSAwIDAgMC04NCA4NHYzNDBhODQuMjUgODQuMjUgMCAwIDAgODQgODRoNDY0YTg0LjI1IDg0LjI1IDAgMCAwIDg0LTg0VjUwMmE4NC4yNSA4NC4yNSAwIDAgMC04NC04NHpNNTYwIDcwNC43OEw1NzIgODAxSDQ1MmwxMi05Ni4yMmE4OCA4OCAwIDEgMSA5NS45NCAweiIvPjwvc3ZnPg==;" parent="1" vertex="1">
          <mxGeometry x="279" y="264" width="58" height="58" as="geometry" />
        </mxCell>
        <mxCell id="d0l3E_F23vbkGV6QoOfy-15" value="&lt;font style=&quot;font-size: 28px;&quot;&gt;map&lt;/font&gt;" style="rounded=1;whiteSpace=wrap;html=1;fillColor=#4A909B;fontColor=#F8F8F8;strokeColor=none;" parent="1" vertex="1">
          <mxGeometry x="266.5" y="326" width="83" height="44" as="geometry" />
        </mxCell>
        <mxCell id="d0l3E_F23vbkGV6QoOfy-17" value="&lt;span style=&quot;font-size: 28px;&quot;&gt;....&lt;/span&gt;" style="rounded=1;whiteSpace=wrap;html=1;fillColor=#4A909B;fontColor=#F8F8F8;strokeColor=none;" parent="1" vertex="1">
          <mxGeometry x="352.5" y="326" width="83" height="44" as="geometry" />
        </mxCell>
        <mxCell id="d0l3E_F23vbkGV6QoOfy-18" value="" style="shape=image;verticalLabelPosition=bottom;labelBackgroundColor=default;verticalAlign=top;aspect=fixed;imageAspect=0;image=data:image/svg+xml,PHN2ZyB4bWxuczp4bGluaz0iaHR0cDovL3d3dy53My5vcmcvMTk5OS94bGluayIgeG1sbnM9Imh0dHA6Ly93d3cudzMub3JnLzIwMDAvc3ZnIiBoZWlnaHQ9IjIwMCIgd2lkdGg9IjIwMCIgdmVyc2lvbj0iMS4xIiB2aWV3Qm94PSIwIDAgMTAyNCAxMDI0IiBjbGFzcz0iaWNvbiI+PHBhdGggZmlsbD0iIzRhOTA5YyIgZD0iTTc0NCA0MThoLTUuNVYyOTNjMC0xMDcuNTMtODcuNDgtMTk1LTE5NS0xOTVINDgxYy0xMDcuNTMgMC0xOTUgODcuNDgtMTk1IDE5NXY0NWE0MCA0MCAwIDAgMCA4MCAwdi00NWExMTUuMTQgMTE1LjE0IDAgMCAxIDExNS0xMTVoNjIuNWExMTUuMTQgMTE1LjE0IDAgMCAxIDExNSAxMTV2MTI1SDI4MGE4NC4yNSA4NC4yNSAwIDAgMC04NCA4NHYzNDBhODQuMjUgODQuMjUgMCAwIDAgODQgODRoNDY0YTg0LjI1IDg0LjI1IDAgMCAwIDg0LTg0VjUwMmE4NC4yNSA4NC4yNSAwIDAgMC04NC04NHpNNTYwIDcwNC43OEw1NzIgODAxSDQ1MmwxMi05Ni4yMmE4OCA4OCAwIDEgMSA5NS45NCAweiIvPjwvc3ZnPg==;" parent="1" vertex="1">
          <mxGeometry x="450.5" y="264" width="58" height="58" as="geometry" />
        </mxCell>
        <mxCell id="d0l3E_F23vbkGV6QoOfy-19" value="&lt;font style=&quot;font-size: 28px;&quot;&gt;map&lt;/font&gt;" style="rounded=1;whiteSpace=wrap;html=1;fillColor=#4A909B;fontColor=#F8F8F8;strokeColor=none;" parent="1" vertex="1">
          <mxGeometry x="438" y="326" width="83" height="44" as="geometry" />
        </mxCell>
        <mxCell id="d0l3E_F23vbkGV6QoOfy-20" value="" style="shape=curlyBracket;whiteSpace=wrap;html=1;rounded=1;labelPosition=left;verticalLabelPosition=middle;align=right;verticalAlign=middle;rotation=90;strokeWidth=3;strokeColor=#4A909B;" parent="1" vertex="1">
          <mxGeometry x="379.5" y="42" width="20" height="422" as="geometry" />
        </mxCell>
        <mxCell id="d0l3E_F23vbkGV6QoOfy-21" value="" style="shape=image;verticalLabelPosition=bottom;labelBackgroundColor=default;verticalAlign=top;aspect=fixed;imageAspect=0;image=data:image/svg+xml,PHN2ZyB4bWxuczp4bGluaz0iaHR0cDovL3d3dy53My5vcmcvMTk5OS94bGluayIgeG1sbnM9Imh0dHA6Ly93d3cudzMub3JnLzIwMDAvc3ZnIiBoZWlnaHQ9IjIwMCIgd2lkdGg9IjIwMCIgdmVyc2lvbj0iMS4xIiB2aWV3Qm94PSIwIDAgMTAyNCAxMDI0IiBjbGFzcz0iaWNvbiI+PHBhdGggZmlsbD0iIzRhOTA5YyIgZD0iTTc0NCA0MThoLTUuNVYyOTNjMC0xMDcuNTMtODcuNDgtMTk1LTE5NS0xOTVINDgxYy0xMDcuNTMgMC0xOTUgODcuNDgtMTk1IDE5NXY0NWE0MCA0MCAwIDAgMCA4MCAwdi00NWExMTUuMTQgMTE1LjE0IDAgMCAxIDExNS0xMTVoNjIuNWExMTUuMTQgMTE1LjE0IDAgMCAxIDExNSAxMTV2MTI1SDI4MGE4NC4yNSA4NC4yNSAwIDAgMC04NCA4NHYzNDBhODQuMjUgODQuMjUgMCAwIDAgODQgODRoNDY0YTg0LjI1IDg0LjI1IDAgMCAwIDg0LTg0VjUwMmE4NC4yNSA4NC4yNSAwIDAgMC04NC04NHpNNTYwIDcwNC43OEw1NzIgODAxSDQ1MmwxMi05Ni4yMmE4OCA4OCAwIDEgMSA5NS45NCAweiIvPjwvc3ZnPg==;" parent="1" vertex="1">
          <mxGeometry x="536" y="264" width="58" height="58" as="geometry" />
        </mxCell>
        <mxCell id="d0l3E_F23vbkGV6QoOfy-22" value="&lt;font style=&quot;font-size: 28px;&quot;&gt;map&lt;/font&gt;" style="rounded=1;whiteSpace=wrap;html=1;fillColor=#4A909B;fontColor=#F8F8F8;strokeColor=none;" parent="1" vertex="1">
          <mxGeometry x="523.5" y="326" width="83" height="44" as="geometry" />
        </mxCell>
        <mxCell id="d0l3E_F23vbkGV6QoOfy-23" value="" style="shape=image;verticalLabelPosition=bottom;labelBackgroundColor=default;verticalAlign=top;aspect=fixed;imageAspect=0;image=data:image/svg+xml,PHN2ZyB4bWxuczp4bGluaz0iaHR0cDovL3d3dy53My5vcmcvMTk5OS94bGluayIgeG1sbnM9Imh0dHA6Ly93d3cudzMub3JnLzIwMDAvc3ZnIiBoZWlnaHQ9IjIwMCIgd2lkdGg9IjIwMCIgdmVyc2lvbj0iMS4xIiB2aWV3Qm94PSIwIDAgMTAyNCAxMDI0IiBjbGFzcz0iaWNvbiI+PHBhdGggZmlsbD0iIzRhOTA5YyIgZD0iTTg0Mi4yNCAwaC02NjAuNDhDODEuNDA4IDAgMCA4MS40MDggMCAxODEuNzZ2NjYwLjQ4QzAgOTQyLjU5MiA4MS40MDggMTAyNCAxODEuNzYgMTAyNGg2NjAuNDhjMTAwLjM1MiAwIDE4MS43Ni04MS40MDggMTgxLjc2LTE4MS43NnYtNjYwLjQ4QzEwMjQgODEuNDA4IDk0Mi41OTIgMCA4NDIuMjQgMHogbTk0LjIwOCA4NDIuMjRjMCA1Mi4yMjQtNDIuNDk2IDk0LjIwOC05NC4yMDggOTQuMjA4aC02NjAuNDhjLTUyLjIyNCAwLTk0LjIwOC00Mi40OTYtOTQuNzItOTQuMjA4di02NjAuNDhDODcuMDQgMTI5LjUzNiAxMjkuNTM2IDg3LjA0IDE4MS43NiA4Ny4wNGg2NjAuNDhjNTIuMjI0IDAgOTQuMjA4IDQyLjQ5NiA5NC4yMDggOTQuNzJ2NjYwLjQ4eiIvPjxwYXRoIGZpbGw9IiM0YTkwOWMiIGQ9Ik0yMDguODk2IDI3NC45NDRoNzEuNjh2NzkuMzZIMzE3LjQ0VjE3My4wNTZoLTM2Ljg2NHY3MS4xNjhoLTcxLjY4VjE3My4wNTZoLTM2Ljg2NHYxODEuMjQ4aDM2Ljg2NFYyNzQuOTQ0eiBtMTgxLjI0OCAzNy44ODhoNzIuNzA0bDE1Ljg3MiA0MC45NmgzOS45MzZMNDQ1Ljk1MiAxNzMuMDU2aC0zOC45MTJMMzM2LjM4NCAzNTQuMzA0aDM4LjkxMmwxNC44NDgtNDEuNDcyeiBtMzUuODQtOTcuNzkybDI1LjA4OCA2Ny4wNzJoLTQ5LjY2NEw0MjUuOTg0IDIxNS4wNHogbTE3Ny42NjQgMTExLjYxNmMtOS43MjggMC41MTItMTguOTQ0LTIuNTYtMjYuNjI0LTguMTkyLTYuNjU2LTUuNjMyLTEwLjc1Mi0xNC4zMzYtMTIuOC0yNi42MjRsLTM1LjMyOCAzLjU4NGMyLjU2IDIwLjQ4IDkuNzI4IDM1Ljg0IDIyLjAxNiA0Ni4wOCAxMi4yODggMTAuNzUyIDI5LjY5NiAxNS44NzIgNTIuNzM2IDE1Ljg3MiAxNS44NzIgMCAyOC42NzItMi4wNDggMzkuNDI0LTYuNjU2IDEwLjI0LTQuMDk2IDE4LjQzMi0xMS4yNjQgMjQuNTc2LTE5Ljk2OCA1LjYzMi04LjcwNCA4LjcwNC0xOC45NDQgOC43MDQtMjkuMTg0IDAuNTEyLTEwLjI0LTIuMDQ4LTE5Ljk2OC03LjE2OC0yOC42NzItNS4xMi03LjY4LTExLjc3Ni0xNC4zMzYtMTkuOTY4LTE4LjQzMi0xMi44LTUuNjMyLTI2LjExMi0xMC4yNC0zOS40MjQtMTIuOC0xNy45Mi00LjYwOC0yOS4xODQtOC4xOTItMzMuNzkyLTEyLjI4OC0zLjU4NC0yLjU2LTUuNjMyLTYuNjU2LTUuNjMyLTExLjI2NCAwLTQuNjA4IDIuMDQ4LTguNzA0IDUuNjMyLTExLjI2NCA3LjY4LTQuNjA4IDE2LjM4NC03LjE2OCAyNS4wODgtNi42NTYgMTAuMjQgMCAxNy45MiAyLjA0OCAyMy4wNCA2LjE0NCA1LjEyIDQuMDk2IDguNzA0IDEwLjc1MiAxMC4yNCAxOS45NjhsMzYuMzUyLTEuNTM2YzAtMTUuMzYtNi42NTYtMjkuNjk2LTE3LjkyLTM5LjkzNnMtMjguNjcyLTE0Ljg0OC01MS4yLTE0Ljg0OGMtMTMuODI0IDAtMjYuMTEyIDIuMDQ4LTM1Ljg0IDYuMTQ0LTkuNzI4IDQuMDk2LTE3LjQwOCAxMC4yNC0yMi41MjggMTguNDMyLTUuMTIgNy42OC03LjY4IDE2Ljg5Ni03LjY4IDI2LjExMiAwIDE0LjMzNiA1LjYzMiAyNi42MjQgMTYuODk2IDM2LjM1MiA3LjY4IDcuMTY4IDIxLjUwNCAxMy4zMTIgNDEuNDcyIDE3LjkyIDE1LjM2IDQuMDk2IDI1LjA4OCA2LjY1NiAyOS4xODQgNy42OCA1LjEyIDEuNTM2IDkuNzI4IDQuMDk2IDEzLjMxMiA3LjY4IDIuNTYgMy4wNzIgMy41ODQgNi42NTYgMy41ODQgMTAuNzUyIDAgNy4xNjgtMy41ODQgMTMuMzEyLTkuMjE2IDE3LjQwOC02LjE0NCA1LjYzMi0xNS4zNiA4LjE5Mi0yNy4xMzYgOC4xOTJ6IG0xMzkuNzc2LTUxLjcxMmg3MS42OHY3OS4zNmgzNi4zNTJWMTczLjA1NmgtMzYuODY0djcxLjE2OGgtNzEuNjhWMTczLjA1NmgtMzYuODY0djE4MS4yNDhoMzYuODY0bDAuNTEyLTc5LjM2eiBtLTMyMCAzMTQuMzY4YzAtMTYuODk2LTEzLjgyNC0zMC43Mi0zMC43Mi0zMC43MkgzMTguOTc2VjQ4NC44NjRjMC0xNi44OTYtMTMuODI0LTMwLjcyLTMwLjcyLTMwLjcycy0zMC43MiAxMy44MjQtMzAuNzIgMzAuNzJWNTU4LjA4SDE4My4yOTZjLTE2Ljg5NiAxLjAyNC0zMC4yMDggMTUuMzYtMjkuNjk2IDMyLjI1NiAwLjUxMiAxNS44NzIgMTMuMzEyIDI4LjY3MiAyOS42OTYgMjkuNjk2aDczLjcyOHY3My43MjhjMS4wMjQgMTYuODk2IDE1LjM2IDMwLjIwOCAzMi4yNTYgMjkuNjk2IDE1Ljg3Mi0wLjUxMiAyOC42NzItMTMuMzEyIDI5LjY5Ni0yOS42OTZ2LTczLjcyOGg3My43MjhjMTYuODk2IDAgMzAuNzItMTMuODI0IDMwLjcyLTMwLjcyeiBtNDQ4IDEyMy4zOTJjMC04LjE5Mi0zLjA3Mi0xNi4zODQtOS4yMTYtMjIuMDE2LTUuNjMyLTUuNjMyLTEzLjgyNC05LjIxNi0yMi4wMTYtOS4yMTYtOC4xOTIgMC0xNS44NzIgMy4wNzItMjIuMDE2IDkuMjE2bC01Mi4yMjQgNTIuMjI0LTUyLjIyNC01Mi4yMjRjLTUuNjMyLTUuNjMyLTEzLjgyNC05LjIxNi0yMi4wMTYtOS4yMTYtOC4xOTIgMC0xNS44NzIgMy4wNzItMjIuMDE2IDkuMjE2LTEyLjI4OCAxMS43NzYtMTIuMjg4IDMxLjIzMi0wLjUxMiA0My41MmwwLjUxMiAwLjUxMiA1Mi4yMjQgNTIuMjI0LTUxLjIgNTEuNzEyYy0xMi4yODggMTEuNzc2LTEyLjI4OCAzMS4yMzItMC41MTIgNDMuNTJsMC41MTIgMC41MTJjMTEuNzc2IDEyLjI4OCAzMS4yMzIgMTIuMjg4IDQzLjUyIDBsMC41MTItMC41MTIgNTIuMjI0LTUyLjIyNCA1Mi4yMjQgNTIuMjI0YzUuNjMyIDUuNjMyIDEzLjgyNCA5LjIxNiAyMi4wMTYgOS4yMTYgOC4xOTIgMCAxNS44NzItMy4wNzIgMjIuMDE2LTkuMjE2IDEyLjI4OC0xMS43NzYgMTIuMjg4LTMxLjIzMiAwLjUxMi00My4wMDhsLTAuNTEyLTAuNTEyLTUyLjIyNC01Mi4yMjQgNTIuMjI0LTUyLjIyNGM1LjEyLTUuMTIgOC4xOTItMTMuMzEyIDguMTkyLTIxLjUwNHogbS0xNTguNzItMjU0LjQ2NGMtMTAuNzUyLTEwLjI0LTI3LjY0OC05LjIxNi0zNy44ODggMS41MzYgMCAwLjUxMi0wLjUxMiAwLjUxMi0wLjUxMiAxLjAyNGwtMzM0Ljg0OCAzODRjLTEwLjI0IDExLjc3Ni05LjIxNiAyOS4xODQgMi4wNDggMzkuNDI0IDEwLjc1MiAxMC4yNCAyNy42NDggOS43MjggMzcuODg4LTEuNTM2bDEuMDI0LTEuMDI0IDMzNC4zMzYtMzg0LjUxMmMxMC4yNC0xMC43NTIgOS4yMTYtMjguNjcyLTIuMDQ4LTM4LjkxMnoiLz48L3N2Zz4=;" parent="1" vertex="1">
          <mxGeometry x="359" y="174" width="61" height="61" as="geometry" />
        </mxCell>
        <mxCell id="3zs3Am_Uh3rQ7c6fNL1m-1" value="" style="rounded=1;whiteSpace=wrap;html=1;fillColor=none;strokeWidth=3;strokeColor=#4A909B;dashed=1;" parent="1" vertex="1">
          <mxGeometry x="89" y="546.87" width="266" height="129.5" as="geometry" />
        </mxCell>
        <mxCell id="3zs3Am_Uh3rQ7c6fNL1m-2" style="edgeStyle=orthogonalEdgeStyle;rounded=0;orthogonalLoop=1;jettySize=auto;html=1;exitX=1;exitY=0.5;exitDx=0;exitDy=0;endArrow=block;endFill=1;strokeColor=#4A909B;strokeWidth=3;fontSize=22;" parent="1" source="3zs3Am_Uh3rQ7c6fNL1m-3" target="3zs3Am_Uh3rQ7c6fNL1m-5" edge="1">
          <mxGeometry relative="1" as="geometry" />
        </mxCell>
        <mxCell id="3zs3Am_Uh3rQ7c6fNL1m-3" value="key1" style="rounded=1;whiteSpace=wrap;html=1;fillColor=#4A909B;fontColor=#F8F8F8;strokeColor=none;fontSize=22;" parent="1" vertex="1">
          <mxGeometry x="113" y="563.87" width="83" height="44" as="geometry" />
        </mxCell>
        <mxCell id="3zs3Am_Uh3rQ7c6fNL1m-5" value="&lt;font style=&quot;font-size: 22px;&quot;&gt;index1&lt;/font&gt;" style="rounded=1;whiteSpace=wrap;html=1;fillColor=#4A909B;fontColor=#F8F8F8;strokeColor=none;fontSize=22;" parent="1" vertex="1">
          <mxGeometry x="231" y="563.87" width="100" height="44" as="geometry" />
        </mxCell>
        <mxCell id="3zs3Am_Uh3rQ7c6fNL1m-6" style="edgeStyle=orthogonalEdgeStyle;rounded=0;orthogonalLoop=1;jettySize=auto;html=1;exitX=1;exitY=0.5;exitDx=0;exitDy=0;endArrow=block;endFill=1;strokeColor=#F19C99;strokeWidth=3;fontSize=22;" parent="1" source="3zs3Am_Uh3rQ7c6fNL1m-7" target="3zs3Am_Uh3rQ7c6fNL1m-9" edge="1">
          <mxGeometry relative="1" as="geometry" />
        </mxCell>
        <mxCell id="3zs3Am_Uh3rQ7c6fNL1m-7" value="&lt;font style=&quot;font-size: 22px;&quot;&gt;key2&lt;/font&gt;" style="rounded=1;whiteSpace=wrap;html=1;fillColor=#F19C99;fontColor=#F8F8F8;strokeColor=none;fontSize=22;" parent="1" vertex="1">
          <mxGeometry x="113" y="617.87" width="83" height="44" as="geometry" />
        </mxCell>
        <mxCell id="3zs3Am_Uh3rQ7c6fNL1m-37" style="edgeStyle=orthogonalEdgeStyle;rounded=0;orthogonalLoop=1;jettySize=auto;html=1;exitX=1;exitY=0.5;exitDx=0;exitDy=0;entryX=0.5;entryY=1;entryDx=0;entryDy=0;curved=1;strokeColor=#F19C99;strokeWidth=3;" parent="1" source="3zs3Am_Uh3rQ7c6fNL1m-9" target="3zs3Am_Uh3rQ7c6fNL1m-26" edge="1">
          <mxGeometry relative="1" as="geometry" />
        </mxCell>
        <mxCell id="3zs3Am_Uh3rQ7c6fNL1m-9" value="&lt;font style=&quot;font-size: 22px;&quot;&gt;index2&lt;/font&gt;" style="rounded=1;whiteSpace=wrap;html=1;fillColor=#F19C99;fontColor=#F8F8F8;strokeColor=none;fontSize=22;" parent="1" vertex="1">
          <mxGeometry x="231" y="617.87" width="100" height="44" as="geometry" />
        </mxCell>
        <mxCell id="3zs3Am_Uh3rQ7c6fNL1m-10" value="&lt;font color=&quot;#4a909b&quot; style=&quot;font-size: 27px;&quot;&gt;map&lt;/font&gt;" style="text;html=1;strokeColor=none;fillColor=none;align=center;verticalAlign=middle;whiteSpace=wrap;rounded=0;" parent="1" vertex="1">
          <mxGeometry x="192" y="678.37" width="60" height="30" as="geometry" />
        </mxCell>
        <mxCell id="3zs3Am_Uh3rQ7c6fNL1m-14" value="&lt;font style=&quot;font-size: 28px;&quot;&gt;0&lt;/font&gt;" style="rounded=1;whiteSpace=wrap;html=1;fillColor=#6DB5A8;fontColor=#F8F8F8;strokeColor=default;" parent="1" vertex="1">
          <mxGeometry x="455.5" y="465" width="64" height="38" as="geometry" />
        </mxCell>
        <mxCell id="3zs3Am_Uh3rQ7c6fNL1m-19" value="&lt;font style=&quot;font-size: 17px;&quot;&gt;0&lt;/font&gt;" style="text;html=1;strokeColor=none;fillColor=none;align=center;verticalAlign=middle;whiteSpace=wrap;rounded=0;fontColor=#EA6B66;" parent="1" vertex="1">
          <mxGeometry x="457.5" y="507.25" width="60" height="30" as="geometry" />
        </mxCell>
        <mxCell id="3zs3Am_Uh3rQ7c6fNL1m-24" value="&lt;font style=&quot;font-size: 23px;&quot; color=&quot;#4a909b&quot;&gt;index:&lt;/font&gt;" style="text;html=1;strokeColor=none;fillColor=none;align=center;verticalAlign=middle;whiteSpace=wrap;rounded=0;" parent="1" vertex="1">
          <mxGeometry x="375.5" y="507.25" width="60" height="30" as="geometry" />
        </mxCell>
        <mxCell id="3zs3Am_Uh3rQ7c6fNL1m-25" value="&lt;font style=&quot;font-size: 28px;&quot;&gt;1&lt;/font&gt;" style="rounded=1;whiteSpace=wrap;html=1;fillColor=#F19C99;fontColor=#F8F8F8;strokeColor=default;" parent="1" vertex="1">
          <mxGeometry x="519.5" y="465" width="64" height="38" as="geometry" />
        </mxCell>
        <mxCell id="3zs3Am_Uh3rQ7c6fNL1m-26" value="&lt;font style=&quot;font-size: 17px;&quot;&gt;1&lt;/font&gt;" style="text;html=1;strokeColor=none;fillColor=none;align=center;verticalAlign=middle;whiteSpace=wrap;rounded=0;fontColor=#EA6B66;" parent="1" vertex="1">
          <mxGeometry x="521.5" y="507.25" width="60" height="30" as="geometry" />
        </mxCell>
        <mxCell id="3zs3Am_Uh3rQ7c6fNL1m-27" value="&lt;font style=&quot;font-size: 28px;&quot;&gt;0&lt;/font&gt;" style="rounded=1;whiteSpace=wrap;html=1;fillColor=#F19C99;fontColor=#F8F8F8;strokeColor=default;" parent="1" vertex="1">
          <mxGeometry x="583.5" y="465" width="64" height="38" as="geometry" />
        </mxCell>
        <mxCell id="3zs3Am_Uh3rQ7c6fNL1m-28" value="&lt;font style=&quot;font-size: 17px;&quot;&gt;2&lt;/font&gt;" style="text;html=1;strokeColor=none;fillColor=none;align=center;verticalAlign=middle;whiteSpace=wrap;rounded=0;fontColor=#EA6B66;" parent="1" vertex="1">
          <mxGeometry x="585.5" y="507.25" width="60" height="30" as="geometry" />
        </mxCell>
        <mxCell id="3zs3Am_Uh3rQ7c6fNL1m-29" value="&lt;font style=&quot;font-size: 28px;&quot;&gt;...&lt;/font&gt;" style="rounded=1;whiteSpace=wrap;html=1;fillColor=#6DB5A8;fontColor=#F8F8F8;strokeColor=default;" parent="1" vertex="1">
          <mxGeometry x="647.5" y="465" width="64" height="38" as="geometry" />
        </mxCell>
        <mxCell id="3zs3Am_Uh3rQ7c6fNL1m-30" value="&lt;font style=&quot;font-size: 17px;&quot;&gt;...&lt;/font&gt;" style="text;html=1;strokeColor=none;fillColor=none;align=center;verticalAlign=middle;whiteSpace=wrap;rounded=0;fontColor=#EA6B66;" parent="1" vertex="1">
          <mxGeometry x="649.5" y="507.25" width="60" height="30" as="geometry" />
        </mxCell>
        <mxCell id="3zs3Am_Uh3rQ7c6fNL1m-31" value="&lt;font style=&quot;font-size: 28px;&quot;&gt;0&lt;/font&gt;" style="rounded=1;whiteSpace=wrap;html=1;fillColor=#6DB5A8;fontColor=#F8F8F8;strokeColor=default;" parent="1" vertex="1">
          <mxGeometry x="711.5" y="465" width="64" height="38" as="geometry" />
        </mxCell>
        <mxCell id="3zs3Am_Uh3rQ7c6fNL1m-32" value="&lt;font style=&quot;font-size: 17px;&quot;&gt;len-2&lt;/font&gt;" style="text;html=1;strokeColor=none;fillColor=none;align=center;verticalAlign=middle;whiteSpace=wrap;rounded=0;fontColor=#EA6B66;" parent="1" vertex="1">
          <mxGeometry x="713.5" y="507.25" width="60" height="30" as="geometry" />
        </mxCell>
        <mxCell id="3zs3Am_Uh3rQ7c6fNL1m-33" value="&lt;font style=&quot;font-size: 28px;&quot;&gt;0&lt;/font&gt;" style="rounded=1;whiteSpace=wrap;html=1;fillColor=#6DB5A8;fontColor=#F8F8F8;strokeColor=default;" parent="1" vertex="1">
          <mxGeometry x="775.5" y="465" width="64" height="38" as="geometry" />
        </mxCell>
        <mxCell id="3zs3Am_Uh3rQ7c6fNL1m-34" value="&lt;font style=&quot;font-size: 17px;&quot;&gt;len-1&lt;/font&gt;" style="text;html=1;strokeColor=none;fillColor=none;align=center;verticalAlign=middle;whiteSpace=wrap;rounded=0;fontColor=#EA6B66;" parent="1" vertex="1">
          <mxGeometry x="777.5" y="507.25" width="60" height="30" as="geometry" />
        </mxCell>
        <mxCell id="3zs3Am_Uh3rQ7c6fNL1m-38" value="" style="shape=curlyBracket;whiteSpace=wrap;html=1;rounded=1;labelPosition=left;verticalLabelPosition=middle;align=right;verticalAlign=middle;rotation=90;strokeWidth=3;strokeColor=#F19C99;" parent="1" vertex="1">
          <mxGeometry x="580.5" y="377" width="20" height="142" as="geometry" />
        </mxCell>
        <mxCell id="3zs3Am_Uh3rQ7c6fNL1m-39" value="" style="rounded=1;whiteSpace=wrap;html=1;fillColor=#F19C99;fontColor=#F8F8F8;strokeColor=none;arcSize=30;" parent="1" vertex="1">
          <mxGeometry x="647.5" y="465.5" width="16" height="37" as="geometry" />
        </mxCell>
        <mxCell id="3zs3Am_Uh3rQ7c6fNL1m-40" value="&lt;font color=&quot;#f19c99&quot; style=&quot;font-size: 24px;&quot;&gt;value1&lt;/font&gt;" style="text;html=1;strokeColor=none;fillColor=none;align=center;verticalAlign=middle;whiteSpace=wrap;rounded=0;" parent="1" vertex="1">
          <mxGeometry x="561.5" y="407" width="60" height="30" as="geometry" />
        </mxCell>
        <mxCell id="3zs3Am_Uh3rQ7c6fNL1m-42" value="&lt;font color=&quot;#4a909b&quot;&gt;&lt;span style=&quot;font-size: 27px;&quot;&gt;ringbuf&lt;/span&gt;&lt;/font&gt;" style="text;html=1;strokeColor=none;fillColor=none;align=center;verticalAlign=middle;whiteSpace=wrap;rounded=0;" parent="1" vertex="1">
          <mxGeometry x="610.5" y="546.87" width="60" height="30" as="geometry" />
        </mxCell>
        <mxCell id="5v1aMKoyPCa-gI8GMVkk-1" value="&lt;font color=&quot;#4d4d4d&quot; style=&quot;font-size: 20px;&quot;&gt;1. 对key进行hash找到对应分片map&lt;/font&gt;" style="text;html=1;strokeColor=none;fillColor=none;align=center;verticalAlign=middle;whiteSpace=wrap;rounded=0;" parent="1" vertex="1">
          <mxGeometry x="116.5" y="187" width="175" height="30" as="geometry" />
        </mxCell>
        <mxCell id="5v1aMKoyPCa-gI8GMVkk-2" value="" style="shape=image;verticalLabelPosition=bottom;labelBackgroundColor=default;verticalAlign=top;aspect=fixed;imageAspect=0;image=data:image/svg+xml,PHN2ZyB4bWxuczp4bGluaz0iaHR0cDovL3d3dy53My5vcmcvMTk5OS94bGluayIgeG1sbnM9Imh0dHA6Ly93d3cudzMub3JnLzIwMDAvc3ZnIiBoZWlnaHQ9IjIwMCIgd2lkdGg9IjIwMCIgdmVyc2lvbj0iMS4xIiB2aWV3Qm94PSIwIDAgMTAyNCAxMDI0IiBjbGFzcz0iaWNvbiI+PHBhdGggZmlsbD0iI0YxOUM5OSIgZD0iTTc5OS45OTk1NTMgMzg0LjAwMDk5NGgtMjMuOTk5OTYzYy00LjM5OTk5MyAwLTcuOTk5OTg4LTMuNTk5OTk0LTcuOTk5OTg3LTcuOTk5OTg4VjI1OC4wMDExODlDNzY3Ljk5OTYwMyAxMTYuNzAxNDA5IDY1Mi4zOTk3ODItMC40OTg0MDkgNTExLjAwMDAwMiAwLjAwMTU5IDM3MC4xMDAyMiAwLjUwMTU4OSAyNTYuMDAwMzk3IDExNC45MDE0MTIgMjU2LjAwMDM5NyAyNTYuMDAxMTkydjExOS45OTk4MTRjMCA0LjM5OTk5My0zLjU5OTk5NCA3Ljk5OTk4OC03Ljk5OTk4NyA3Ljk5OTk4OGgtMjMuOTk5OTYzYy01Mi45OTk5MTggMC05NS45OTk4NTEgNDIuOTk5OTMzLTk1Ljk5OTg1MSA5NS45OTk4NTF2NDQ3Ljk5OTMwNGMwIDUyLjk5OTkxOCA0Mi45OTk5MzMgOTUuOTk5ODUxIDk1Ljk5OTg1MSA5NS45OTk4NTFoNTc1Ljk5OTEwNmM1Mi45OTk5MTggMCA5NS45OTk4NTEtNDIuOTk5OTMzIDk1Ljk5OTg1MS05NS45OTk4NTFWNDgwLjAwMDg0NWMwLTUyLjk5OTkxOC00Mi45OTk5MzMtOTUuOTk5ODUxLTk1Ljk5OTg1MS05NS45OTk4NTF6TTU2OS42OTk5MSA3NDguNzAwNDI3Yy0xNS45OTk5NzUgMTIuMDk5OTgxLTI1LjY5OTk2IDMwLjY5OTk1Mi0yNS42OTk5NiA1MC43OTk5MjJWODY0LjAwMDI0OGMwIDE3LjQ5OTk3My0xNC4xOTk5NzggMzEuNzk5OTUxLTMxLjU5OTk1MSAzMS45OTk5NTEtMTcuNzk5OTcyIDAuMi0zMi4zOTk5NS0xNC43OTk5NzctMzIuMzk5OTQ5LTMyLjY5OTk0OVY4MDAuMDAwMzQ4YzAtMjAuMTk5OTY5LTkuNTk5OTg1LTM5LjA5OTkzOS0yNS43OTk5Ni01MS4yOTk5MjFDNDMxLjAwMDEyNiA3MzEuMjAwNDU1IDQxNi4wMDAxNDkgNzAzLjMwMDQ5OCA0MTYuMDAwMTQ5IDY3Mi4wMDA1NDdjMC01Mi4xOTk5MTkgNDIuMzk5OTM0LTk1LjI5OTg1MiA5NC41OTk4NTMtOTUuOTk5ODUxIDUzLjY5OTkxNy0wLjc5OTk5OSA5Ny4zOTk4NDkgNDIuNDk5OTM0IDk3LjM5OTg0OSA5NS45OTk4NTEgMCAzMS4yOTk5NTEtMTQuOTk5OTc3IDU5LjE5OTkwOC0zOC4yOTk5NDEgNzYuNjk5ODh6TTcwMy45OTk3MDIgMzc2LjAwMTAwNmMwIDQuMzk5OTkzLTMuNTk5OTk0IDcuOTk5OTg4LTcuOTk5OTg4IDcuOTk5OTg4SDMyOC4wMDAyODZjLTQuMzk5OTkzIDAtNy45OTk5ODgtMy41OTk5OTQtNy45OTk5ODgtNy45OTk5ODhWMjU2LjAwMTE5MmMwLTUxLjI5OTkyIDE5Ljk5OTk2OS05OS40OTk4NDYgNTYuMTk5OTEzLTEzNS43OTk3ODlDNDEyLjUwMDE1NCA4NC4wMDE0NiA0NjAuNzAwMDggNjQuMDAxNDkxIDUxMiA2NC4wMDE0OTFzOTkuNDk5ODQ2IDE5Ljk5OTk2OSAxMzUuNzk5Nzg5IDU2LjE5OTkxMkM2ODMuOTk5NzMzIDE1Ni41MDEzNDcgNzAzLjk5OTcwMiAyMDQuNzAxMjcyIDcwMy45OTk3MDIgMjU2LjAwMTE5MnYxMTkuOTk5ODE0eiIvPjxwYXRoIGZpbGw9IiNGMTlDOTkiIGQ9Ik01MTIgNjcyLjAwMDU0N20tMzEuOTk5OTUgMGEzMS45OTk5NSAzMS45OTk5NSAwIDEgMCA2My45OTk5IDAgMzEuOTk5OTUgMzEuOTk5OTUgMCAxIDAtNjMuOTk5OSAwWiIvPjwvc3ZnPg==;" parent="1" vertex="1">
          <mxGeometry x="199.07" y="270.07" width="45.85" height="45.85" as="geometry" />
        </mxCell>
        <mxCell id="5v1aMKoyPCa-gI8GMVkk-3" value="&lt;font color=&quot;#4d4d4d&quot; style=&quot;font-size: 20px;&quot;&gt;2.加锁&lt;/font&gt;" style="text;html=1;strokeColor=none;fillColor=none;align=center;verticalAlign=middle;whiteSpace=wrap;rounded=0;" parent="1" vertex="1">
          <mxGeometry x="94.5" y="336" width="91" height="30" as="geometry" />
        </mxCell>
        <mxCell id="5v1aMKoyPCa-gI8GMVkk-4" value="&lt;font color=&quot;#4d4d4d&quot; style=&quot;font-size: 20px;&quot;&gt;3.根据key hash找到index（或者没找到）&lt;/font&gt;" style="text;html=1;strokeColor=none;fillColor=none;align=left;verticalAlign=middle;whiteSpace=wrap;rounded=0;" parent="1" vertex="1">
          <mxGeometry x="33" y="450" width="219" height="30" as="geometry" />
        </mxCell>
        <mxCell id="5v1aMKoyPCa-gI8GMVkk-5" value="&lt;font color=&quot;#4d4d4d&quot; style=&quot;font-size: 20px;&quot;&gt;4.根据index找到ringbuf中的位置读取value&lt;/font&gt;&lt;font color=&quot;#4d4d4d&quot; style=&quot;font-size: 20px;&quot;&gt;&lt;br&gt;&lt;/font&gt;" style="text;html=1;strokeColor=none;fillColor=none;align=center;verticalAlign=middle;whiteSpace=wrap;rounded=0;" parent="1" vertex="1">
          <mxGeometry x="282" y="653" width="585" height="30" as="geometry" />
        </mxCell>
      </root>
    </mxGraphModel>
  </diagram>
</mxfile>
